<svg xmlns="http://www.w3.org/2000/svg" viewBox="0 0 500 500"><!--Notebook--><g id="freepik--background-simple--inject-1--inject-28"><path d="M425,239c.94-5.39,2.45-10.72,3.53-16.21a95.82,95.82,0,0,0,.45-32.1,126.09,126.09,0,0,0-23.66-56.34c-13.18-17.68-33-32-54.3-26.59-22.16,5.6-40.92,22.69-62.47,30.49-36.5,13.2-73.45-10.86-110.23-10-31.76.69-65.08,12.09-86,40.28-8.54,11.51-14.49,27-12.47,42.24,2.47,18.57,16.1,32.7,26.26,46.44,15.58,21.06,21.48,44,8.37,68.58-8.86,16.66-20.78,31.38-19.75,52.07,1.65,33.1,32.21,53.09,57.41,62,25.6,9.06,54.67,10,80.12-.2,22.61-9.1,38.39-29,59-41.7a93.26,93.26,0,0,1,60.51-13.28c21.78,2.6,44.73,7.18,65.78-2.21,20.14-9,29.68-33.05,30.43-56.1a92.15,92.15,0,0,0-5.11-33.84c-4.67-13.06-15-23.25-17.91-37.1A43,43,0,0,1,425,239Z" style="fill:#0284C7"></path><path d="M425,239c.94-5.39,2.45-10.72,3.53-16.21a95.82,95.82,0,0,0,.45-32.1,126.09,126.09,0,0,0-23.66-56.34c-13.18-17.68-33-32-54.3-26.59-22.16,5.6-40.92,22.69-62.47,30.49-36.5,13.2-73.45-10.86-110.23-10-31.76.69-65.08,12.09-86,40.28-8.54,11.51-14.49,27-12.47,42.24,2.47,18.57,16.1,32.7,26.26,46.44,15.58,21.06,21.48,44,8.37,68.58-8.86,16.66-20.78,31.38-19.75,52.07,1.65,33.1,32.21,53.09,57.41,62,25.6,9.06,54.67,10,80.12-.2,22.61-9.1,38.39-29,59-41.7a93.26,93.26,0,0,1,60.51-13.28c21.78,2.6,44.73,7.18,65.78-2.21,20.14-9,29.68-33.05,30.43-56.1a92.15,92.15,0,0,0-5.11-33.84c-4.67-13.06-15-23.25-17.91-37.1A43,43,0,0,1,425,239Z" style="fill:#fff;opacity:0.7000000000000001"></path></g><g id="freepik--Plants--inject-1--inject-28"><path d="M367.66,77.28c.06,0,1.85-4.72,1.93-5,.91-3.63.52-11.18-3-13.39a5,5,0,0,0-7,2.25c-1.31,2.66-.39,6.19.87,8.69C361.88,72.71,367.66,77.27,367.66,77.28Z" style="fill:#0284C7"></path><path d="M450.63,111.89c-2.93-3-10.38-1.76-13.73-.09-.29.14-4.56,2.91-4.5,3l.06.06c-1.17.19-2.44.4-3.81.66-2.53.51-5.39,1.1-8.45,2a84.82,84.82,0,0,0-9.76,3.23,64.9,64.9,0,0,0-10.3,5.12l-.11.08c.8-.93,2.94-3.62,3.09-3.84,2-3.17,4-10.46,1.29-13.67a5,5,0,0,0-7.38,0c-2.07,2.12-2.3,5.75-1.88,8.52.48,3.11,4.21,8.84,4.51,9.3a86.29,86.29,0,0,0-9.38,7c-1.74,1.48-3.44,3-5.13,4.58.66-.83,1.25-1.57,1.32-1.69,2-3.17,4-10.46,1.3-13.67a5,5,0,0,0-7.38,0c-2.07,2.12-2.3,5.76-1.88,8.52s3.51,7.75,4.34,9l-1.92,1.81c-3.07,2.92-6.12,5.85-9.2,8.63-1.08,1-2.19,1.91-3.29,2.84.59-.74,1.08-1.36,1.15-1.46,2-3.17,4-10.46,1.29-13.68a5,5,0,0,0-7.38-.05c-2.06,2.12-2.3,5.76-1.88,8.52s3.22,7.27,4.2,8.82c-1.15.92-2.31,1.84-3.47,2.68-.81.55-1.55,1.14-2.39,1.65l-2.44,1.56c-1.59.93-3.22,1.9-4.79,2.78-1.09.61-2.14,1.17-3.19,1.75,1.09-1,3.18-2.9,3.34-3.08a19.3,19.3,0,0,0,4-8.87,5.16,5.16,0,0,0,.64-.89,5,5,0,0,0-2-7.1c-2.89-1.33-7.33.56-10.41,2.75.13-2.13.07-3.44.07-3.44l-.81.08.59-1.41c.4-.88.7-1.86,1.05-2.8.78-2.2,1.46-4.47,2.1-6.76,1.45.7,6.62,3.15,9.43,3.25s6.38-.54,8.25-2.84a5,5,0,0,0-.89-7.33c-3.5-2.3-10.52.51-13.44,2.85-.18.15-2.09,2.07-3.11,3.14.37-1.38.75-2.76,1.08-4.18.95-4.07,1.79-8.23,2.65-12.37.26-1.27.54-2.53.81-3.8.51.26,6.6,3.3,9.74,3.41,2.8.1,6.38-.54,8.25-2.84a5,5,0,0,0-.89-7.32c-3.5-2.31-10.52.5-13.44,2.85-.22.17-3,2.93-3.61,3.67.59-2.78,1.22-5.55,1.94-8.26a85.59,85.59,0,0,1,3.58-10.74c.24.12,6.58,3.32,9.8,3.43,2.79.11,6.38-.54,8.25-2.84a5,5,0,0,0-.9-7.32c-3.5-2.31-10.51.5-13.43,2.85-.23.18-3.17,3.15-3.67,3.73.09-.2.15-.42.24-.62a63.35,63.35,0,0,1,5.47-10c1.15-1.75,2.34-3.37,3.54-4.91,1.12.72,6.27,3.94,9.16,4.37s6.4.15,8.51-1.92a5,5,0,0,0-.09-7.38c-3.22-2.68-10.5-.65-13.66,1.36-.17.1-1.8,1.41-3,2.37.55-.68,1.1-1.4,1.64-2.05,2-2.44,4-4.55,5.82-6.4,1-1,2-2,2.87-2.83,1.47.13,7.38.58,10.09-.35s5.76-2.81,6.67-5.63a5,5,0,0,0-3.47-6.51c-4.1-.89-9.63,4.27-11.51,7.5-.16.28-2.19,4.95-2.12,5h.09c-.88.8-1.81,1.68-2.81,2.65-1.84,1.82-3.89,3.89-6,6.3a88.26,88.26,0,0,0-6.36,8.08,64.94,64.94,0,0,0-5.75,10l-.06.13c.16-1.22.47-4.64.46-4.91-.08-3.74-2.44-10.92-6.46-12.12a5,5,0,0,0-6.19,4c-.55,2.9,1.26,6.06,3.14,8.14,2.11,2.34,8.39,5,8.89,5.27a85.48,85.48,0,0,0-3.95,11c-.64,2.19-1.21,4.41-1.76,6.65.1-1.06.18-2,.17-2.14-.08-3.74-2.44-10.92-6.46-12.12a5,5,0,0,0-6.18,4c-.56,2.9,1.26,6.06,3.13,8.14s7.21,4.52,8.62,5.15c-.2.86-.41,1.71-.61,2.57-.95,4.13-1.87,8.26-2.91,12.27-.36,1.42-.77,2.8-1.17,4.18.08-.93.14-1.73.14-1.85-.08-3.74-2.44-10.92-6.46-12.12a5,5,0,0,0-6.18,4c-.56,2.91,1.25,6.07,3.13,8.15s6.69,4.28,8.36,5c-.45,1.41-.91,2.81-1.42,4.15-.36.91-.65,1.81-1.07,2.7l-1.15,2.58c-.89.15-1.92.35-3.07.61-.3-3.77-1.71-8.37-4.58-9.73a5,5,0,0,0-6.73,3.05c-1,2.79.33,6.19,1.87,8.52a7.57,7.57,0,0,0,.76,1,36.55,36.55,0,0,0-12.95,8.94c-10.37,11.6-9.59,29.22-9.59,29.22s14.71-1,25.16-10c3.21-1.52,7.36-3.54,12.11-6.09,1.78-.94,3.66-2,5.58-3.09.51.63,4.64,5.75,7.39,7.14,2.5,1.27,6,2.18,8.68.88a5,5,0,0,0,2.26-7c-2.21-3.56-9.76-3.94-13.39-3-.21.06-2.47.9-3.89,1.45.78-.45,1.55-.88,2.35-1.36,1.59-.93,3.15-1.9,4.83-2.94l2.41-1.61c.81-.52,1.61-1.17,2.42-1.76,1.86-1.4,3.68-2.92,5.48-4.48.82,1.39,3.79,6.28,6.07,7.91s5.62,3.07,8.45,2.19a5,5,0,0,0,3.29-6.61c-1.64-3.85-9.05-5.38-12.77-5-.24,0-2.88.57-4.33.9,1.07-.95,2.15-1.9,3.21-2.89,3-2.88,6-5.88,9-8.86.92-.92,1.85-1.82,2.77-2.72.28.49,3.69,6.39,6.25,8.22,2.27,1.63,5.62,3.06,8.44,2.18a5,5,0,0,0,3.3-6.6c-1.65-3.86-9-5.38-12.78-5-.28,0-4.08.82-5,1.07,2-2,4.08-4,6.17-5.81a87,87,0,0,1,8.92-7c.13.23,3.66,6.4,6.28,8.27,2.27,1.63,5.62,3.07,8.44,2.18a5,5,0,0,0,3.3-6.6c-1.65-3.86-9.05-5.38-12.78-5-.29,0-4.38.89-5.12,1.1.19-.13.36-.27.54-.39a63.56,63.56,0,0,1,10.06-5.28c1.92-.83,3.8-1.52,5.65-2.14.54,1.21,3.06,6.74,5.24,8.69s5.25,3.66,8.15,3.1a5,5,0,0,0,4-6.21c-1.22-4-8.41-6.34-12.15-6.4-.21,0-2.28.18-3.79.35.84-.27,1.7-.57,2.51-.81,3-.92,5.87-1.57,8.39-2.13,1.43-.31,2.73-.56,4-.77,1.15.91,5.84,4.55,8.61,5.27s6.35.83,8.67-1A5,5,0,0,0,450.63,111.89Zm-106.9,56.89c-2.18,1.11-4.24,2.12-6.14,3a40.82,40.82,0,0,0,6.49-15.52c.57.14,1.15.26,1.73.37.17,3.15,2.68,8.75,3,9.47C347.07,167.06,345.36,168,343.73,168.78Z" style="fill:#0284C7"></path><path d="M421.1,115.31c2.76-2.53,6.61-9,4.86-12.84a5,5,0,0,0-7.1-2c-2.55,1.5-3.74,4.94-4.06,7.72-.38,3.26,1.92,10.25,1.92,10.25S420.87,115.53,421.1,115.31Z" style="fill:#0284C7"></path><path d="M300,84.19s-21.35,21.66-21.46,48.5,21,48.67,21,48.67S320.91,159.7,321,132.87,300,84.19,300,84.19Z" style="fill:#0284C7"></path><path d="M253.07,145.57s-.13,17.64,10.66,28.85,28.41,11.75,28.41,11.75.14-17.64-10.65-28.85S253.07,145.57,253.07,145.57Z" style="fill:#0284C7"></path><g style="opacity:0.5"><path d="M367.66,77.28c.06,0,1.85-4.72,1.93-5,.91-3.63.52-11.18-3-13.39a5,5,0,0,0-7,2.25c-1.31,2.66-.39,6.19.87,8.69C361.88,72.71,367.66,77.27,367.66,77.28Z" style="fill:#fff"></path><path d="M450.63,111.89c-2.93-3-10.38-1.76-13.73-.09-.29.14-4.56,2.91-4.5,3l.06.06c-1.17.19-2.44.4-3.81.66-2.53.51-5.39,1.1-8.45,2a84.82,84.82,0,0,0-9.76,3.23,64.9,64.9,0,0,0-10.3,5.12l-.11.08c.8-.93,2.94-3.62,3.09-3.84,2-3.17,4-10.46,1.29-13.67a5,5,0,0,0-7.38,0c-2.07,2.12-2.3,5.75-1.88,8.52.48,3.11,4.21,8.84,4.51,9.3a86.29,86.29,0,0,0-9.38,7c-1.74,1.48-3.44,3-5.13,4.58.66-.83,1.25-1.57,1.32-1.69,2-3.17,4-10.46,1.3-13.67a5,5,0,0,0-7.38,0c-2.07,2.12-2.3,5.76-1.88,8.52s3.51,7.75,4.34,9l-1.92,1.81c-3.07,2.92-6.12,5.85-9.2,8.63-1.08,1-2.19,1.91-3.29,2.84.59-.74,1.08-1.36,1.15-1.46,2-3.17,4-10.46,1.29-13.68a5,5,0,0,0-7.38-.05c-2.06,2.12-2.3,5.76-1.88,8.52s3.22,7.27,4.2,8.82c-1.15.92-2.31,1.84-3.47,2.68-.81.55-1.55,1.14-2.39,1.65l-2.44,1.56c-1.59.93-3.22,1.9-4.79,2.78-1.09.61-2.14,1.17-3.19,1.75,1.09-1,3.18-2.9,3.34-3.08a19.3,19.3,0,0,0,4-8.87,5.16,5.16,0,0,0,.64-.89,5,5,0,0,0-2-7.1c-2.89-1.33-7.33.56-10.41,2.75.13-2.13.07-3.44.07-3.44l-.81.08.59-1.41c.4-.88.7-1.86,1.05-2.8.78-2.2,1.46-4.47,2.1-6.76,1.45.7,6.62,3.15,9.43,3.25s6.38-.54,8.25-2.84a5,5,0,0,0-.89-7.33c-3.5-2.3-10.52.51-13.44,2.85-.18.15-2.09,2.07-3.11,3.14.37-1.38.75-2.76,1.08-4.18.95-4.07,1.79-8.23,2.65-12.37.26-1.27.54-2.53.81-3.8.51.26,6.6,3.3,9.74,3.41,2.8.1,6.38-.54,8.25-2.84a5,5,0,0,0-.89-7.32c-3.5-2.31-10.52.5-13.44,2.85-.22.17-3,2.93-3.61,3.67.59-2.78,1.22-5.55,1.94-8.26a85.59,85.59,0,0,1,3.58-10.74c.24.12,6.58,3.32,9.8,3.43,2.79.11,6.38-.54,8.25-2.84a5,5,0,0,0-.9-7.32c-3.5-2.31-10.51.5-13.43,2.85-.23.18-3.17,3.15-3.67,3.73.09-.2.15-.42.24-.62a63.35,63.35,0,0,1,5.47-10c1.15-1.75,2.34-3.37,3.54-4.91,1.12.72,6.27,3.94,9.16,4.37s6.4.15,8.51-1.92a5,5,0,0,0-.09-7.38c-3.22-2.68-10.5-.65-13.66,1.36-.17.1-1.8,1.41-3,2.37.55-.68,1.1-1.4,1.64-2.05,2-2.44,4-4.55,5.82-6.4,1-1,2-2,2.87-2.83,1.47.13,7.38.58,10.09-.35s5.76-2.81,6.67-5.63a5,5,0,0,0-3.47-6.51c-4.1-.89-9.63,4.27-11.51,7.5-.16.28-2.19,4.95-2.12,5h.09c-.88.8-1.81,1.68-2.81,2.65-1.84,1.82-3.89,3.89-6,6.3a88.26,88.26,0,0,0-6.36,8.08,64.94,64.94,0,0,0-5.75,10l-.06.13c.16-1.22.47-4.64.46-4.91-.08-3.74-2.44-10.92-6.46-12.12a5,5,0,0,0-6.19,4c-.55,2.9,1.26,6.06,3.14,8.14,2.11,2.34,8.39,5,8.89,5.27a85.48,85.48,0,0,0-3.95,11c-.64,2.19-1.21,4.41-1.76,6.65.1-1.06.18-2,.17-2.14-.08-3.74-2.44-10.92-6.46-12.12a5,5,0,0,0-6.18,4c-.56,2.9,1.26,6.06,3.13,8.14s7.21,4.52,8.62,5.15c-.2.86-.41,1.71-.61,2.57-.95,4.13-1.87,8.26-2.91,12.27-.36,1.42-.77,2.8-1.17,4.18.08-.93.14-1.73.14-1.85-.08-3.74-2.44-10.92-6.46-12.12a5,5,0,0,0-6.18,4c-.56,2.91,1.25,6.07,3.13,8.15s6.69,4.28,8.36,5c-.45,1.41-.91,2.81-1.42,4.15-.36.91-.65,1.81-1.07,2.7l-1.15,2.58c-.89.15-1.92.35-3.07.61-.3-3.77-1.71-8.37-4.58-9.73a5,5,0,0,0-6.73,3.05c-1,2.79.33,6.19,1.87,8.52a7.57,7.57,0,0,0,.76,1,36.55,36.55,0,0,0-12.95,8.94c-10.37,11.6-9.59,29.22-9.59,29.22s14.71-1,25.16-10c3.21-1.52,7.36-3.54,12.11-6.09,1.78-.94,3.66-2,5.58-3.09.51.63,4.64,5.75,7.39,7.14,2.5,1.27,6,2.18,8.68.88a5,5,0,0,0,2.26-7c-2.21-3.56-9.76-3.94-13.39-3-.21.06-2.47.9-3.89,1.45.78-.45,1.55-.88,2.35-1.36,1.59-.93,3.15-1.9,4.83-2.94l2.41-1.61c.81-.52,1.61-1.17,2.42-1.76,1.86-1.4,3.68-2.92,5.48-4.48.82,1.39,3.79,6.28,6.07,7.91s5.62,3.07,8.45,2.19a5,5,0,0,0,3.29-6.61c-1.64-3.85-9.05-5.38-12.77-5-.24,0-2.88.57-4.33.9,1.07-.95,2.15-1.9,3.21-2.89,3-2.88,6-5.88,9-8.86.92-.92,1.85-1.82,2.77-2.72.28.49,3.69,6.39,6.25,8.22,2.27,1.63,5.62,3.06,8.44,2.18a5,5,0,0,0,3.3-6.6c-1.65-3.86-9-5.38-12.78-5-.28,0-4.08.82-5,1.07,2-2,4.08-4,6.17-5.81a87,87,0,0,1,8.92-7c.13.23,3.66,6.4,6.28,8.27,2.27,1.63,5.62,3.07,8.44,2.18a5,5,0,0,0,3.3-6.6c-1.65-3.86-9.05-5.38-12.78-5-.29,0-4.38.89-5.12,1.1.19-.13.36-.27.54-.39a63.56,63.56,0,0,1,10.06-5.28c1.92-.83,3.8-1.52,5.65-2.14.54,1.21,3.06,6.74,5.24,8.69s5.25,3.66,8.15,3.1a5,5,0,0,0,4-6.21c-1.22-4-8.41-6.34-12.15-6.4-.21,0-2.28.18-3.79.35.84-.27,1.7-.57,2.51-.81,3-.92,5.87-1.57,8.39-2.13,1.43-.31,2.73-.56,4-.77,1.15.91,5.84,4.55,8.61,5.27s6.35.83,8.67-1A5,5,0,0,0,450.63,111.89Zm-106.9,56.89c-2.18,1.11-4.24,2.12-6.14,3a40.82,40.82,0,0,0,6.49-15.52c.57.14,1.15.26,1.73.37.17,3.15,2.68,8.75,3,9.47C347.07,167.06,345.36,168,343.73,168.78Z" style="fill:#fff"></path><path d="M421.1,115.31c2.76-2.53,6.61-9,4.86-12.84a5,5,0,0,0-7.1-2c-2.55,1.5-3.74,4.94-4.06,7.72-.38,3.26,1.92,10.25,1.92,10.25S420.87,115.53,421.1,115.31Z" style="fill:#fff"></path><path d="M300,84.19s-21.35,21.66-21.46,48.5,21,48.67,21,48.67S320.91,159.7,321,132.87,300,84.19,300,84.19Z" style="fill:#fff"></path><path d="M253.07,145.57s-.13,17.64,10.66,28.85,28.41,11.75,28.41,11.75.14-17.64-10.65-28.85S253.07,145.57,253.07,145.57Z" style="fill:#fff"></path></g><polygon points="313.42 157.01 312.74 156.13 300.18 165.99 300.28 144.3 317.73 128.86 316.99 128.03 300.28 142.81 300.39 118.99 312.14 108.81 311.42 107.97 300.39 117.51 300.54 84.19 299.43 84.19 299.21 133.28 285.39 113.07 284.47 113.69 299.12 135.1 299.21 135.04 299.12 155.44 282.54 140.53 281.8 141.36 299.11 156.93 299.11 156.92 299.01 181.36 300.12 181.37 300.18 167.4 313.42 157.01" style="fill:#fff"></polygon><polygon points="345.58 145.47 344.76 144.73 326.28 165.39 327.96 152.04 326.86 151.91 324.98 166.83 324.99 166.83 317.56 175.14 316.16 162.81 315.06 162.93 316.57 176.25 307.19 186.73 308.02 187.47 313.35 181.52 322.98 182.1 323.04 180.99 314.29 180.46 322.28 171.53 335.69 171.54 335.69 170.43 323.27 170.41 332.06 160.59 340.97 160.7 340.99 159.59 333.05 159.49 345.58 145.47" style="fill:#fff"></polygon><polygon points="288.3 170.47 287.2 170.32 286.02 179.01 277.71 170.37 278.73 157 277.62 156.92 276.68 169.3 267.53 159.8 268.31 150.92 267.2 150.83 266.51 158.74 253.47 145.19 252.67 145.96 271.89 165.93 258.71 163.25 258.49 164.34 273.23 167.33 273.23 167.31 280.96 175.35 268.56 175.82 268.6 176.93 281.99 176.42 291.74 186.55 292.54 185.78 287.01 180.03 288.3 170.47" style="fill:#fff"></polygon></g><g id="freepik--Notebook--inject-1--inject-28"><polyline points="296.41 435.67 424.1 387.76 425.02 377.55 298.27 425.45 296.41 435.67" style="fill:#0284C7;stroke:#2e353a;stroke-linecap:round;stroke-linejoin:round;stroke-width:1.13593px"></polyline><path d="M274.91,266.31a9.74,9.74,0,0,1-6.14-2.24,11.32,11.32,0,0,1-4-7.11,1.95,1.95,0,0,1,3.85-.59,7.44,7.44,0,0,0,2.61,4.67,5.63,5.63,0,0,0,8.47-1.31,1.95,1.95,0,0,1,3.25,2.15,9.57,9.57,0,0,1-6.59,4.31A8.75,8.75,0,0,1,274.91,266.31Z" style="fill:#2e353a"></path><path d="M256.48,272c-4.93,0-9.34-3.92-10.17-9.34a1.94,1.94,0,0,1,1.62-2.22,2,2,0,0,1,2.23,1.63c.58,3.81,3.79,6.49,7.14,6a5.75,5.75,0,0,0,3.94-2.61,1.95,1.95,0,0,1,3.25,2.15,9.57,9.57,0,0,1-6.59,4.31A8.66,8.66,0,0,1,256.48,272Z" style="fill:#2e353a"></path><path d="M239.62,278.47a9.75,9.75,0,0,1-6.14-2.23,11.35,11.35,0,0,1-4-7.11,1.95,1.95,0,0,1,3.85-.59,7.44,7.44,0,0,0,2.61,4.67,5.81,5.81,0,0,0,4.54,1.3,5.73,5.73,0,0,0,3.93-2.61,2,2,0,0,1,3.26,2.15,9.61,9.61,0,0,1-6.6,4.31A8.73,8.73,0,0,1,239.62,278.47Z" style="fill:#2e353a"></path><path d="M221.19,283.75c-4.93,0-9.34-3.93-10.17-9.34a1.95,1.95,0,1,1,3.85-.6c.59,3.81,3.79,6.49,7.14,6a5.77,5.77,0,0,0,3.94-2.6,1.95,1.95,0,1,1,3.25,2.14,9.62,9.62,0,0,1-6.59,4.32A9.81,9.81,0,0,1,221.19,283.75Z" style="fill:#2e353a"></path><path d="M202.32,291.25c-4.92,0-9.33-3.92-10.17-9.34a2,2,0,0,1,3.86-.59c.58,3.81,3.79,6.48,7.14,6a5.78,5.78,0,0,0,3.94-2.61,1.95,1.95,0,0,1,3.25,2.15,9.6,9.6,0,0,1-6.59,4.31A10,10,0,0,1,202.32,291.25Z" style="fill:#2e353a"></path><path d="M184.05,297.94a9.73,9.73,0,0,1-6.14-2.23,11.35,11.35,0,0,1-4-7.11,1.95,1.95,0,0,1,3.85-.59,7.44,7.44,0,0,0,2.61,4.67,5.63,5.63,0,0,0,8.47-1.31,2,2,0,0,1,3.26,2.15,9.61,9.61,0,0,1-6.6,4.31A8.73,8.73,0,0,1,184.05,297.94Z" style="fill:#2e353a"></path><line x1="299.91" y1="429.44" x2="405.58" y2="390.51" style="fill:#fff;stroke:#2e353a;stroke-linecap:round;stroke-linejoin:round;stroke-width:0.567964px"></line><line x1="297.13" y1="432.69" x2="364.79" y2="407.66" style="fill:#fff;stroke:#2e353a;stroke-linecap:round;stroke-linejoin:round;stroke-width:0.567964px"></line><polyline points="169.18 293.45 169.18 305.52 296.41 435.67 298.27 425.45 169.18 293.45" style="fill:#0284C7;stroke:#2e353a;stroke-linecap:round;stroke-linejoin:round;stroke-width:1.13593px"></polyline><line x1="171.07" y1="302.92" x2="246.62" y2="378.46" style="fill:#fff;stroke:#2e353a;stroke-linecap:round;stroke-linejoin:round;stroke-width:0.567964px"></line><line x1="206.76" y1="335.36" x2="285.54" y2="416" style="fill:#fff;stroke:#2e353a;stroke-linecap:round;stroke-linejoin:round;stroke-width:0.567964px"></line><polygon points="169.18 293.45 298.27 425.45 425.02 377.55 293.65 251.65 169.18 293.45" style="fill:#fff;stroke:#2e353a;stroke-linecap:round;stroke-linejoin:round;stroke-width:1.13593px"></polygon><polygon points="167.6 291.37 48.04 179.78 170.51 141.59 292.71 249.66 167.6 291.37" style="fill:#0284C7;stroke:#2e353a;stroke-linecap:round;stroke-linejoin:round;stroke-width:1.13593px"></polygon><line x1="66.34" y1="180.52" x2="101.34" y2="169.62" style="fill:none;stroke:#2e353a;stroke-linecap:round;stroke-linejoin:round;stroke-width:1.21052px"></line><line x1="71.51" y1="184.54" x2="106.51" y2="173.64" style="fill:none;stroke:#2e353a;stroke-linecap:round;stroke-linejoin:round;stroke-width:1.21052px"></line><path d="M190.46,294.39a1.91,1.91,0,0,1-1.07-.32,2,2,0,0,1-.56-2.7,7.42,7.42,0,0,0,1.08-5.24,7,7,0,0,0-5.11-5.9,1.95,1.95,0,0,1,.86-3.8,10.92,10.92,0,0,1,8.11,9.11,11.31,11.31,0,0,1-1.68,8A2,2,0,0,1,190.46,294.39Z" style="fill:#2e353a"></path><path d="M208.71,287.7a1.91,1.91,0,0,1-1.07-.32,1.94,1.94,0,0,1-.55-2.7,7.47,7.47,0,0,0,1.08-5.24,7,7,0,0,0-5.11-5.9,1.95,1.95,0,1,1,.85-3.8,10.92,10.92,0,0,1,8.11,9.11,11.31,11.31,0,0,1-1.68,8A2,2,0,0,1,208.71,287.7Z" style="fill:#2e353a"></path><path d="M281.32,262.76a2,2,0,0,1-1.63-3,7.38,7.38,0,0,0,1.08-5.23,7,7,0,0,0-5.11-5.91,1.93,1.93,0,0,1-1.47-2.32,2,2,0,0,1,2.33-1.48,10.92,10.92,0,0,1,8.11,9.11,11.27,11.27,0,0,1-1.69,8A1.93,1.93,0,0,1,281.32,262.76Z" style="fill:#2e353a"></path><path d="M262.86,268.43a1.91,1.91,0,0,1-1.07-.32,1.94,1.94,0,0,1-.55-2.7,7.46,7.46,0,0,0,1.08-5.24,7,7,0,0,0-5.11-5.9,1.95,1.95,0,1,1,.85-3.8,10.9,10.9,0,0,1,8.11,9.11,11.31,11.31,0,0,1-1.68,8A2,2,0,0,1,262.86,268.43Z" style="fill:#2e353a"></path><path d="M246,274.93a1.92,1.92,0,0,1-1.07-.33,2,2,0,0,1-.56-2.7,7.4,7.4,0,0,0,1.09-5.24,7,7,0,0,0-5.11-5.9,1.95,1.95,0,1,1,.85-3.8,10.92,10.92,0,0,1,8.11,9.11,11.31,11.31,0,0,1-1.68,8A2,2,0,0,1,246,274.93Z" style="fill:#2e353a"></path><path d="M227.57,280.2a2,2,0,0,1-1.07-.32,1.94,1.94,0,0,1-.55-2.7,7.47,7.47,0,0,0,1.08-5.24,7,7,0,0,0-5.11-5.9,2,2,0,1,1,.85-3.81,10.89,10.89,0,0,1,8.11,9.11,11.3,11.3,0,0,1-1.68,8A2,2,0,0,1,227.57,280.2Z" style="fill:#2e353a"></path><line x1="400.62" y1="374.5" x2="405.54" y2="372.69" style="fill:#fff;stroke:#2e353a;stroke-linecap:round;stroke-linejoin:round;stroke-width:0.567964px"></line><line x1="303.49" y1="410.38" x2="396.15" y2="376.16" style="fill:#fff;stroke:#2e353a;stroke-linecap:round;stroke-linejoin:round;stroke-width:0.567964px"></line><line x1="306.09" y1="394.91" x2="394.52" y2="362.25" style="fill:#fff;stroke:#2e353a;stroke-linecap:round;stroke-linejoin:round;stroke-width:0.567964px"></line><line x1="292.47" y1="399.94" x2="300.21" y2="397.08" style="fill:#fff;stroke:#2e353a;stroke-linecap:round;stroke-linejoin:round;stroke-width:0.567964px"></line><line x1="281.45" y1="389.5" x2="383.51" y2="351.81" style="fill:#fff;stroke:#2e353a;stroke-linecap:round;stroke-linejoin:round;stroke-width:0.567964px"></line><line x1="270.44" y1="379.07" x2="372.49" y2="341.38" style="fill:#fff;stroke:#2e353a;stroke-linecap:round;stroke-linejoin:round;stroke-width:0.567964px"></line><line x1="357.19" y1="332.52" x2="361.47" y2="330.94" style="fill:#fff;stroke:#2e353a;stroke-linecap:round;stroke-linejoin:round;stroke-width:0.567964px"></line><line x1="259.42" y1="368.63" x2="351.07" y2="334.78" style="fill:#fff;stroke:#2e353a;stroke-linecap:round;stroke-linejoin:round;stroke-width:0.567964px"></line><line x1="248.4" y1="358.19" x2="350.46" y2="320.5" style="fill:#fff;stroke:#2e353a;stroke-linecap:round;stroke-linejoin:round;stroke-width:0.567964px"></line><line x1="237.38" y1="347.76" x2="339.44" y2="310.07" style="fill:#fff;stroke:#2e353a;stroke-linecap:round;stroke-linejoin:round;stroke-width:0.567964px"></line><line x1="226.37" y1="337.32" x2="328.42" y2="299.63" style="fill:#fff;stroke:#2e353a;stroke-linecap:round;stroke-linejoin:round;stroke-width:0.567964px"></line><line x1="215.35" y1="326.88" x2="317.4" y2="289.19" style="fill:#fff;stroke:#2e353a;stroke-linecap:round;stroke-linejoin:round;stroke-width:0.567964px"></line><line x1="302.77" y1="280.09" x2="306.39" y2="278.75" style="fill:#fff;stroke:#2e353a;stroke-linecap:round;stroke-linejoin:round;stroke-width:0.567964px"></line><line x1="204.33" y1="316.44" x2="299.63" y2="281.25" style="fill:#fff;stroke:#2e353a;stroke-linecap:round;stroke-linejoin:round;stroke-width:0.567964px"></line><line x1="223.78" y1="294.75" x2="295.37" y2="268.32" style="fill:#fff;stroke:#2e353a;stroke-linecap:round;stroke-linejoin:round;stroke-width:0.567964px"></line><line x1="193.32" y1="306.01" x2="213.03" y2="298.73" style="fill:#fff;stroke:#2e353a;stroke-linecap:round;stroke-linejoin:round;stroke-width:0.567964px"></line><path d="M228.72,333c10.33,1.35,9.42-16.33,6.8-22.26a20.53,20.53,0,0,0-4.89,16.14,7.51,7.51,0,0,0,1.36,3.74,3.42,3.42,0,0,0,3.55,1.32,5,5,0,0,0,2.28-1.94c1.9-2.52,3.16-5.64,5.16-7.95,2.77,1.87,12.61,5.07,11.19-1.81-.78-3.8,1.11-3.37,3.14-1.51.84.76,2.16.35,3.2-.11l10-4.4a12,12,0,0,1,4.07-1.23c4.8-.24,7.94,4.22,12.65,1.07,2-1.32,2.46-4.9,5-6.26,1.81-1,3.94-1.06,6-1.34,7.08-.94,10.7-4.68,17.24-8.06" style="fill:none;stroke:#0284C7;stroke-linecap:round;stroke-linejoin:round;stroke-width:1.13593px;mix-blend-mode:multiply"></path><path d="M236.74,344.05c3.87.66,7.18-2.87,10.6-4,4.37-1.46,6.27-3.24,10.47-5.05,5.55-2.38,12.07-3.48,10.91-11.87-.79,3-.88,6.3-1.49,9.44,4.5,2.23,5.71-1.6,6.17-5a13,13,0,0,0,4.41-.89c0,.63.2,1.34.19,1.94,2.16.87,3,.28,3.45-1.63,2.39-.45,3.24-2.69,5.26-3.24.51,5.61,1.94,10.52,1.61,16.26-3.83,1-4.43-5.61-3.46-8.35,1-2.9,3.88-4.45,4.94-7.48.22.37.05.8.17,1.2,4.82-2.88,11-2.1,15.78-5.47,1.5-1.06,2.57-3.18,4.16-3.92,3.46-1.6,4.49.28,7.07-3.49" style="fill:none;stroke:#0284C7;stroke-linecap:round;stroke-linejoin:round;stroke-width:1.13593px;mix-blend-mode:multiply"></path><path d="M271.58,377c6.95-2,10-19.27,8-25.61-2.34-7.67-5.56.74-6.31,4.86-.6,3.3-1.56,12,1.52,14.51,6.83,5.54,11-5.85,11.84-11,.3,3.22-1.64,7.19-.85,10.66,5.53.65,8.27-3.95,7.92-8.7a4.58,4.58,0,0,1,1,5.21c5.28-.37,4.41-9.28,5-12.87-.3,2.51-.07,5.45,1.62,7.48,1.41,1.68,4.1,2.42,5.87,1.12s1.42-4.72-.73-5.17v21.65a3.08,3.08,0,0,1-.36,1.81c-.71,1-2.45.79-3.26-.17a5.57,5.57,0,0,1-.95-3.57c-.1-7.09,2.09-16.8,7.58-21.64a4.2,4.2,0,0,1,.27,2.18,3.91,3.91,0,0,0,2.27-2.35c.36,1.59,1.3,3.59,2.91,3.31a3.21,3.21,0,0,0,1.42-.8c2.64-2.18,5.5-3.62,7.27-6.72.25.78.51,1.56.77,2.35.42-1.51,1.86-2.5,3.27-3.18a18.51,18.51,0,0,1,6.85-1.73c2-.1,4.18.11,6-.75a18,18,0,0,0,2.31-1.47,13.93,13.93,0,0,1,6.95-2.28" style="fill:none;stroke:#0284C7;stroke-linecap:round;stroke-linejoin:round;stroke-width:1.13593px;mix-blend-mode:multiply"></path></g><g id="freepik--Glasses--inject-1--inject-28"><path d="M189.19,187.09s15.95-20.1,21.35-27.29,9.31-12.72,9.31-12.72,2.88,2.27,2,4.85S202,180.42,197.78,187s-3.63,14.91-3.32,17.78S186.4,198.27,189.19,187.09Z" style="fill:#fff;stroke:#2e353a;stroke-linecap:round;stroke-linejoin:round;stroke-width:1.2726700000000002px"></path><path d="M219.85,147.08s9.93-13.81,17.3-25.31S255.28,93,257.84,90.7s3.18,3.7,2.35,7.72-9.64,15.24-15.59,24.44-9.63,15.82-14.75,21.86-4.82,6.33-8,7.21S219.29,149.66,219.85,147.08Z" style="fill:#2e353a;stroke:#2e353a;stroke-linecap:round;stroke-linejoin:round;stroke-width:1.2726700000000002px"></path><path d="M185.76,189.11c1.1-7.45,3.59-21.21,9.28-25.54s22.91-1,24.34-.74,24.09,5.28,31,9.53S261.93,188.89,263.7,196s5.57,19.15,6.14,20c0,0,5.75,2.53,8.9,2.23s7.34-14.94,16.16-23.59,13.4-9.83,23.14-9,46.74,10.86,50.49,14.55,6.09,12,5.28,18,.37,12.6.37,13.74,3.47,4.85,2.63,8-1.36,10-3.93,10.91-21.48.43-35.52-1.48-33.57-10.38-46.5-16.3-19.24-8.47-28.69-8.4-27.77.47-44.69-3.43-28.42-11-31.6-14.11S184.67,196.57,185.76,189.11Zm101.32,35.12c4.63,6.85,23.29,13.6,33.33,16.39s34.12,7.79,40.4,4.32,9.58-24.12,9-31.28-3.51-11.14-3.51-11.14c-12.37-7.65-51.08-15.7-59.08-12.49s-15.65,13.56-18.46,21.88S287.08,224.23,287.08,224.23Zm-80.83-11.77c12.36,7.36,31.85,9.52,39.58,9.76s15.15-3.82,15.38-12.7-4.45-23.74-6.2-28-7.49-6.82-7.49-6.82c-7.75-3.67-39.88-11.76-45.32-10.86S192,173,190.89,185.07,193.89,205.1,206.25,212.46Z" style="fill:#2e353a;stroke:#2e353a;stroke-linecap:round;stroke-linejoin:round;stroke-width:1.2726700000000002px"></path><path d="M373.32,231.68s3.18,4.85,5.45,1.4,31.55-36.29,31.55-36.29,1.14-.3.87,2-30.92,43.45-32.06,45.46-6,2.62-7.14,1.77S373.32,231.68,373.32,231.68Z" style="fill:#fff;stroke:#2e353a;stroke-linecap:round;stroke-linejoin:round;stroke-width:1.2726700000000002px"></path><path d="M408.32,197.94a93.76,93.76,0,0,0,4.52-9.19c3.1-6.89,5-20.36,5.5-34.4s1-22.34,3.59-19.78.37,16.33-.11,27.2-3.86,21.79-4.68,27.53c-.62,4.33-3.94,11.19-6.23,11.2S408.91,199.94,408.32,197.94Z" style="fill:#2e353a;stroke:#2e353a;stroke-linecap:round;stroke-linejoin:round;stroke-width:1.2726700000000002px"></path></g><g id="freepik--Pencils--inject-1--inject-28"><polygon points="219.38 377.44 231.97 391.69 213.25 387.47 80.05 305.98 86.19 295.95 219.38 377.44" style="fill:#fff;stroke:#2e353a;stroke-linecap:round;stroke-linejoin:round;stroke-width:1.4364000000000001px"></polygon><polygon points="219.38 377.44 231.97 391.69 213.25 387.47 80.05 305.98 86.19 295.95 219.38 377.44" style="fill:#0284C7;stroke:#2e353a;stroke-linecap:round;stroke-linejoin:round;stroke-width:1.4364000000000001px;opacity:0.5;mix-blend-mode:multiply"></polygon><rect x="146.51" y="263.64" width="6.41" height="156.15" transform="translate(-219.9 291.08) rotate(-58.54)" style="fill:none;stroke:#2e353a;stroke-linecap:round;stroke-linejoin:round;stroke-width:0.718198px"></rect><polygon points="219.41 377.47 213.28 387.48 231.97 391.69 219.41 377.47" style="fill:#fff;stroke:#2e353a;stroke-linecap:round;stroke-linejoin:round;stroke-width:1.4364000000000001px"></polygon><polygon points="222.62 389.58 231.97 391.69 225.69 384.58 222.62 389.58" style="fill:#0284C7;stroke:#2e353a;stroke-linecap:round;stroke-linejoin:round;stroke-width:1.4364000000000001px"></polygon><path d="M68.21,291.84h0a5.87,5.87,0,0,0,1.94,8.08l9.9,6.06,6.14-10-9.9-6.06A5.88,5.88,0,0,0,68.21,291.84Z" style="fill:#fff;stroke:#2e353a;stroke-linecap:round;stroke-linejoin:round;stroke-width:1.4364000000000001px"></path><path d="M68.21,291.84h0a5.87,5.87,0,0,0,1.94,8.08l4.74,2.9,6.14-10-4.74-2.9A5.88,5.88,0,0,0,68.21,291.84Z" style="fill:#2e353a;stroke:#2e353a;stroke-linecap:round;stroke-linejoin:round;stroke-width:1.4364000000000001px"></path><path d="M337,244.09l-3.51-2.47a4.41,4.41,0,0,0-3.78-.62C326,242.08,319,244.83,317,247c-2.6,2.68-3.42,7.53-2.17,9.81s6.38,5.19,6.38,5.19l21.49-13.08Z" style="fill:#fff;stroke:#2e353a;stroke-miterlimit:10;stroke-width:0.9473px"></path><path d="M337,244.09l-3.51-2.47a4.41,4.41,0,0,0-3.78-.62C326,242.08,319,244.83,317,247c-2.6,2.68-3.42,7.53-2.17,9.81s6.38,5.19,6.38,5.19l21.49-13.08Z" style="fill:#0284C7;stroke:#2e353a;stroke-miterlimit:10;stroke-width:0.9473px;opacity:0.5;mix-blend-mode:multiply"></path><path d="M339.19,243.08l-17,7.77s-5.75,3.25-3.93,13.2l99.55,73.3s3.46,2.52,9.71.39,12.65-9.5,14-15.73-3-8.19-3.81-8.88-95.16-69.31-95.16-69.31A5,5,0,0,0,339.19,243.08Z" style="fill:#fff;stroke:#2e353a;stroke-miterlimit:10;stroke-width:0.9473px"></path><path d="M339.19,243.08l-17,7.77s-5.75,3.25-3.93,13.2l99.55,73.3s3.46,2.52,9.71.39,12.65-9.5,14-15.73-3-8.19-3.81-8.88-95.16-69.31-95.16-69.31A5,5,0,0,0,339.19,243.08Z" style="fill:#0284C7;stroke:#2e353a;stroke-miterlimit:10;stroke-width:0.9473px;opacity:0.5;mix-blend-mode:multiply"></path><path d="M434.82,332.57c-6.27,5.85-13.86,7.91-17,4.59s-.55-10.77,5.72-16.63,13.86-7.91,17-4.59S441.08,326.71,434.82,332.57Z" style="fill:#fff;stroke:#2e353a;stroke-miterlimit:10;stroke-width:0.9473px"></path><path d="M434.82,332.57c-6.27,5.85-13.86,7.91-17,4.59s-.55-10.77,5.72-16.63,13.86-7.91,17-4.59S441.08,326.71,434.82,332.57Z" style="fill:#0284C7;stroke:#2e353a;stroke-miterlimit:10;stroke-width:0.9473px;mix-blend-mode:multiply"></path><path d="M342.54,243.82a5,5,0,0,0-3.35-.74l-17,7.77s-5.75,3.25-3.93,13.2l68.84,50.69c-.49-2.34-.4-5.76,2.23-9.82,2.44-3.79,13.4-9.9,19.32-13C380.63,271.53,342.54,243.82,342.54,243.82Z" style="fill:#2e353a;stroke:#2e353a;stroke-linecap:round;stroke-linejoin:round;stroke-width:1.2726700000000002px"></path><path d="M421.53,320.35,385.17,294a4,4,0,0,1,.39-6.73l5.63-3.07a4,4,0,0,1,4.24.27l38.44,27.84" style="fill:#fff;stroke:#2e353a;stroke-miterlimit:10;stroke-width:0.9473px"></path><path d="M421.53,320.35,385.17,294a4,4,0,0,1,.39-6.73l5.63-3.07a4,4,0,0,1,4.24.27l38.44,27.84" style="fill:#0284C7;stroke:#2e353a;stroke-miterlimit:10;stroke-width:0.9473px;opacity:0.5;mix-blend-mode:multiply"></path></g></svg>